HIERARCHY
ROOT Hips
{
	OFFSET 0.000000 89.005402 0.000000
	CHANNELS 6 Xposition Yposition Zposition Xrotation Yrotation Zrotation
	JOINT Spine
	{
		OFFSET 0.116900 10.681000 0.373400
		CHANNELS 3 Xrotation Yrotation Zrotation
		JOINT Spine1
		{
			OFFSET 0.000000 13.840401 0.053500
			CHANNELS 3 Xrotation Yrotation Zrotation
			JOINT Spine2
			{
				OFFSET 0.000000 14.712700 -0.366200
				CHANNELS 3 Xrotation Yrotation Zrotation
				JOINT Neck
				{
					OFFSET 0.000000 35.415497 -3.314200
					CHANNELS 3 Xrotation Yrotation Zrotation
					JOINT Head
					{
						OFFSET 0.000000 16.899200 1.218300
						CHANNELS 3 Xrotation Yrotation Zrotation
						JOINT HeadTop_End
						{
							OFFSET 0.000000 22.206207 2.192500
							CHANNELS 3 Xrotation Yrotation Zrotation
							End Site
							{
								OFFSET 0.000000 22.314178 0.000000
							}
						}
					}
				}
				JOINT LeftShoulder
				{
					OFFSET 12.896400 26.716293 -4.548400
					CHANNELS 3 Xrotation Yrotation Zrotation
					JOINT LeftArm
					{
						OFFSET 19.027000 -4.857010 -1.718400
						CHANNELS 3 Xrotation Yrotation Zrotation
						JOINT LeftForeArm
						{
							OFFSET 24.179897 0.000000 0.000000
							CHANNELS 3 Xrotation Yrotation Zrotation
							JOINT LeftHand
							{
								OFFSET 27.156403 0.000000 0.000000
								CHANNELS 3 Xrotation Yrotation Zrotation
								JOINT LeftHandIndex1
								{
									OFFSET 16.441200 0.000000 0.000000
									CHANNELS 3 Xrotation Yrotation Zrotation
									JOINT LeftHandIndex2
									{
										OFFSET 4.821899 0.000000 0.000000
										CHANNELS 3 Xrotation Yrotation Zrotation
										JOINT LeftHandIndex3
										{
											OFFSET 6.386497 0.000000 0.000000
											CHANNELS 3 Xrotation Yrotation Zrotation
											JOINT LeftHandIndex4
											{
												OFFSET 5.188988 0.000000 0.000000
												CHANNELS 3 Xrotation Yrotation Zrotation
												End Site
												{
													OFFSET -0.178703 5.185913 0.000177
												}
											}
										}
									}
								}
								JOINT LeftHandThumb1
								{
									OFFSET 6.534897 -5.032593 5.900300
									CHANNELS 3 Xrotation Yrotation Zrotation
									JOINT LeftHandThumb2
									{
										OFFSET 3.818176 -2.204422 2.204423
										CHANNELS 3 Xrotation Yrotation Zrotation
										JOINT LeftHandThumb3
										{
											OFFSET 3.252098 -1.877594 1.877601
											CHANNELS 3 Xrotation Yrotation Zrotation
											JOINT LeftHandThumb4
											{
												OFFSET 5.251778 -3.032120 3.032117
												CHANNELS 3 Xrotation Yrotation Zrotation
												End Site
												{
													OFFSET 0.000023 6.780014 0.000000
												}
											}
										}
									}
								}
							}
						}
					}
				}
				JOINT RightShoulder
				{
					OFFSET -12.896300 26.716293 -4.548400
					CHANNELS 3 Xrotation Yrotation Zrotation
					JOINT RightArm
					{
						OFFSET -19.027000 -4.857010 -1.718400
						CHANNELS 3 Xrotation Yrotation Zrotation
						JOINT RightForeArm
						{
							OFFSET -24.179897 0.000000 0.000000
							CHANNELS 3 Xrotation Yrotation Zrotation
							JOINT RightHand
							{
								OFFSET -27.156403 0.000000 0.000000
								CHANNELS 3 Xrotation Yrotation Zrotation
								JOINT RightHandThumb1
								{
									OFFSET -6.591202 -4.852203 5.988100
									CHANNELS 3 Xrotation Yrotation Zrotation
									JOINT RightHandThumb2
									{
										OFFSET -3.818176 -2.204422 2.204423
										CHANNELS 3 Xrotation Yrotation Zrotation
										JOINT RightHandThumb3
										{
											OFFSET -3.252098 -1.877594 1.877601
											CHANNELS 3 Xrotation Yrotation Zrotation
											JOINT RightHandThumb4
											{
												OFFSET -5.251778 -3.032120 3.032117
												CHANNELS 3 Xrotation Yrotation Zrotation
												End Site
												{
													OFFSET -0.000023 6.780014 0.000000
												}
											}
										}
									}
								}
								JOINT RightHandIndex1
								{
									OFFSET -16.029404 0.000000 0.000000
									CHANNELS 3 Xrotation Yrotation Zrotation
									JOINT RightHandIndex2
									{
										OFFSET -5.213303 0.000000 0.000000
										CHANNELS 3 Xrotation Yrotation Zrotation
										JOINT RightHandIndex3
										{
											OFFSET -6.386528 0.000000 0.000000
											CHANNELS 3 Xrotation Yrotation Zrotation
											JOINT RightHandIndex4
											{
												OFFSET -5.189026 0.000000 0.000000
												CHANNELS 3 Xrotation Yrotation Zrotation
												End Site
												{
													OFFSET 0.236702 5.183624 0.001972
												}
											}
										}
									}
								}
							}
						}
					}
				}
			}
		}
	}
	JOINT LeftUpLeg
	{
		OFFSET 14.073000 -7.904099 -1.463000
		CHANNELS 3 Xrotation Yrotation Zrotation
		JOINT LeftLeg
		{
			OFFSET -0.109806 -34.073280 4.093200
			CHANNELS 3 Xrotation Yrotation Zrotation
			JOINT LeftFoot
			{
				OFFSET 0.109806 -29.899420 -6.319000
				CHANNELS 3 Xrotation Yrotation Zrotation
				JOINT LeftToeBase
				{
					OFFSET 1.551100 -14.988700 20.535801
					CHANNELS 3 Xrotation Yrotation Zrotation
					JOINT LeftToe_End
					{
						OFFSET 0.221200 0.570800 13.248301
						CHANNELS 3 Xrotation Yrotation Zrotation
						End Site
						{
							OFFSET 0.000000 13.262435 0.000000
						}
					}
				}
			}
		}
	}
	JOINT RightUpLeg
	{
		OFFSET -13.839300 -7.904099 -1.463000
		CHANNELS 3 Xrotation Yrotation Zrotation
		JOINT RightLeg
		{
			OFFSET 0.109694 -34.073219 4.093300
			CHANNELS 3 Xrotation Yrotation Zrotation
			JOINT RightFoot
			{
				OFFSET -0.109694 -29.899384 -6.319200
				CHANNELS 3 Xrotation Yrotation Zrotation
				JOINT RightToeBase
				{
					OFFSET -1.551100 -14.988700 20.535801
					CHANNELS 3 Xrotation Yrotation Zrotation
					JOINT RightToe_End
					{
						OFFSET -0.221200 0.570900 13.248299
						CHANNELS 3 Xrotation Yrotation Zrotation
						End Site
						{
							OFFSET 0.000000 13.262440 0.000000
						}
					}
				}
			}
		}
	}
}
MOTION
Frames: 4
Frame Time: 0.033333
-1.257558 73.777344 42.486572 -14.951457 36.130622 1.954594 2.516548 -2.304119 -1.482420 5.036989 -4.101990 -1.943490 5.036990 -4.101996 -1.943493 26.631560 -0.661357 1.098444 23.426857 -6.835028 10.386756 0.000002 -0.000000 -0.000000 0.283933 -25.680873 -10.811674 -14.050217 -30.639156 -29.638011 48.538603 -69.104398 14.068500 13.693171 11.118420 -5.811212 -1.117562 -4.727871 -80.477524 -9.326715 -0.910424 -94.326832 -0.000002 0.000006 -0.000000 -0.000000 0.000003 -0.000002 5.335628 6.147456 -38.461830 27.587079 22.635010 10.156138 -0.000000 -0.000003 -0.000011 -0.000000 -0.000002 -0.000000 1.323500 14.639739 2.433204 -39.777574 21.533942 52.613043 165.625039 64.974039 -163.019185 14.227801 -13.503957 -15.622167 22.234409 23.132835 22.091318 28.915712 -41.044400 28.924345 -0.000001 0.000003 -0.000006 -0.000000 -0.000002 -0.000001 1.562720 4.265571 91.926546 -9.203822 -2.723057 108.229989 -0.000003 0.000001 -0.000000 -0.000001 -0.000001 -0.000000 -9.426275 8.221803 6.095702 66.214791 8.049077 4.902532 -46.242771 1.518144 -2.051713 0.272800 -0.237358 -0.512575 0.000000 -0.000001 0.000000 -41.520003 1.176331 -9.238998 37.361148 3.467421 2.072669 29.287127 1.787039 13.222228 -10.284643 0.396463 -1.074071 0.000000 0.000000 -0.000000 
-0.941516 75.151115 39.672737 -11.447164 31.967744 -0.266255 2.637534 -2.671513 -1.186893 5.318362 -4.705859 -0.941780 5.318361 -4.705861 -0.941779 25.744178 0.317710 -0.797852 19.052283 -5.158488 8.079559 0.000003 -0.000000 -0.000000 0.800437 -25.907987 -8.668607 -19.392312 -28.512741 -22.212801 49.311476 -75.674637 23.247886 13.689860 1.047693 -7.903791 -1.117565 -4.727862 -80.477496 -9.329266 -0.909709 -94.326634 0.000000 0.000005 0.000002 -0.000000 0.000003 0.000000 5.335684 6.147419 -38.461854 27.587153 22.635044 10.156097 0.000003 -0.000004 -0.000015 0.000000 0.000001 0.000001 1.210230 14.389482 2.735036 -45.302162 22.890708 47.662768 168.025017 60.436820 -167.714312 10.090127 -12.412849 -16.739025 22.234422 23.132845 22.091342 28.915660 -41.044369 28.924308 0.000001 0.000002 -0.000002 -0.000001 -0.000002 -0.000004 1.562731 4.265555 91.926505 -9.203816 -2.723029 108.230003 -0.000002 0.000001 0.000001 -0.000000 -0.000000 -0.000001 -12.362083 10.679868 3.830637 62.418305 11.180035 5.004787 -42.417643 1.319894 -1.580838 0.306199 -0.278463 -0.575462 0.000000 -0.000000 0.000000 -47.426354 -0.952656 -8.830702 44.758930 5.546026 4.382914 26.775976 1.030406 9.271618 -5.790843 0.033678 0.139171 0.000000 0.000001 0.000000 
-0.741979 76.755219 36.418053 -8.115645 27.060195 -2.111387 2.896976 -2.961586 -0.819233 5.875032 -5.198322 0.024450 5.875030 -5.198315 0.024447 24.335582 1.222657 -3.444367 12.725664 -3.514520 5.667888 -0.000000 0.000000 -0.000001 1.081891 -23.789959 -7.313247 -25.929609 -26.011631 -14.745043 50.647208 -80.833697 33.413938 11.406064 -10.162913 -7.625178 -1.117570 -4.727858 -80.477421 -9.332889 -0.908686 -94.326333 -0.000000 0.000004 0.000000 0.000001 -0.000001 0.000000 5.335751 6.147321 -38.461909 27.587295 22.635074 10.155988 -0.000003 -0.000004 -0.000012 0.000003 -0.000003 -0.000001 1.058934 14.251892 3.386372 -50.157306 23.679393 43.660253 166.331103 57.589013 -168.137128 7.517150 -10.573311 -17.306846 22.234390 23.132854 22.091357 28.915633 -41.044359 28.924290 -0.000000 0.000005 -0.000003 -0.000001 -0.000001 0.000004 1.562718 4.265545 91.926512 -9.203797 -2.722998 108.230023 -0.000000 0.000000 0.000001 -0.000001 -0.000000 -0.000001 -15.585450 14.874335 2.622028 57.670231 12.483999 4.934361 -37.963769 0.688763 0.297294 0.243623 -0.263751 -0.460592 0.000000 -0.000001 0.000000 -52.144219 0.015186 -8.226875 54.054240 3.298209 7.130864 19.472152 0.393110 6.714431 -3.533647 0.006449 0.609693 0.000001 0.000000 0.000000 
-0.720492 78.451691 33.112617 -4.958813 21.300596 -3.454235 3.199199 -3.016345 -0.535798 6.497366 -5.301820 0.635403 6.497367 -5.301831 0.635405 22.767218 1.600675 -5.182934 4.778653 -2.382759 3.934374 -0.000000 -0.000000 -0.000000 1.057741 -20.744080 -6.834821 -30.746004 -23.134885 -9.173546 54.142486 -85.097327 43.805589 9.144355 -14.843207 -3.119857 -1.117573 -4.727848 -80.477380 -9.337699 -0.907310 -94.325957 -0.000001 0.000005 0.000003 0.000001 -0.000000 0.000001 5.335852 6.147255 -38.461963 27.587450 22.635052 10.155894 -0.000000 -0.000005 -0.000012 0.000001 -0.000003 -0.000001 0.825160 14.442264 5.042581 -53.657826 24.107089 40.532525 163.722626 56.271459 -167.162514 6.306966 -9.208637 -16.131923 22.234412 23.132894 22.091376 28.915568 -41.044338 28.924246 0.000002 0.000004 -0.000002 0.000001 -0.000000 0.000001 1.562742 4.265538 91.926457 -9.203785 -2.722950 108.229982 0.000002 0.000001 -0.000001 0.000001 -0.000000 0.000001 -18.662228 19.749775 2.081522 52.057677 13.212810 4.768947 -33.149114 0.203685 2.474458 0.146399 -0.171586 -0.276939 0.000000 -0.000001 0.000000 -54.821882 3.516940 -7.686061 62.804464 -1.385353 10.696392 9.339090 0.262459 7.244055 -3.845574 0.102412 0.604312 -0.000000 -0.000001 0.000000 
